<svg height="512" viewBox="0 0 64 64" width="512" xmlns="http://www.w3.org/2000/svg"><g id="Icons"><g><g><path d="m41.159 16c-1.547 3.527-5.068 6-9.159 6s-7.613-2.473-9.159-6h-14.841v42h20.555c.693 1.191 1.968 2 3.445 2s2.752-.809 3.445-2h14.555v-10.472l6-12v-19.528z" fill="#fa6450"/></g><g><path d="m12 50h38v4h-38z" fill="#be2814"/></g><g><path d="m8 16h4v42h-4z" fill="#dc4632"/></g><g><path d="m52 48v2h8v-2l-2-4h-4z" fill="#fab400"/></g><g><path d="m56 44h-2l-2 4v2h2v-2z" fill="#dc9600"/></g><g><path d="m54 44h4l-2-4z" fill="#505050"/></g><g><path d="m56 40-2 4h2l1-2z" fill="#3c3c3c"/></g><g><path d="m58 50c-1.105 0-2-.895-2-2 0 1.105-.895 2-2 2s-2-.895-2-2v12h8v-12c0 1.105-.895 2-2 2z" fill="#3cc8b4"/></g><g><path d="m52 48v12h2v-10c-1.105 0-2-.895-2-2z" fill="#1eaa96"/></g><g><path d="m32 20c-4.418 0-8-3.582-8-8 0-4.418 3.582-8 8-8 4.418 0 8 3.582 8 8 0 4.418-3.582 8-8 8z" fill="#fa6450"/></g><g><g><path d="m26 12c0-4.079 3.055-7.438 7-7.931-.328-.041-.661-.069-1-.069-4.418 0-8 3.582-8 8s3.582 8 8 8c.339 0 .672-.028 1-.069-3.945-.493-7-3.852-7-7.931z" fill="#dc4632"/></g></g><g><g><circle cx="32" cy="12" fill="#f0f0f0" r="6"/></g></g><g><g><path d="m30.354 14.354-.708-.708 1.854-1.853v-3.793h1v4.207z" fill="#505050"/></g></g><g><g><path d="m32 13c-.552 0-1-.448-1-1 0-.552.448-1 1-1 .552 0 1 .448 1 1 0 .552-.448 1-1 1z" fill="#fa6450"/></g></g><g><path d="m42 12c0 5.514-4.486 10-10 10s-10-4.486-10-10h-10v38h13.515c1.591 0 3.117.632 4.243 1.757l2.242 2.243 2.243-2.243c1.125-1.125 2.651-1.757 4.242-1.757h11.515v-2.472l2-4v-31.528z" fill="#f0f0f0"/></g><g><path d="m12 12h4v38h-4z" fill="#d2d2d2"/></g><g><path d="m18 22h10v2h-10z" fill="#d2d2d2"/></g><g><path d="m18 26h10v2h-10z" fill="#d2d2d2"/></g><g><path d="m18 30h10v2h-10z" fill="#d2d2d2"/></g><g><path d="m18 34h10v2h-10z" fill="#d2d2d2"/></g><g><path d="m18 38h10v2h-10z" fill="#d2d2d2"/></g><g><path d="m18 42h10v2h-10z" fill="#d2d2d2"/></g><g><path d="m36 22h10v2h-10z" fill="#d2d2d2"/></g><g><path d="m36 26h10v2h-10z" fill="#d2d2d2"/></g><g><path d="m36 30h10v2h-10z" fill="#d2d2d2"/></g><g><path d="m36 34h10v2h-10z" fill="#d2d2d2"/></g><g><path d="m36 38h10v2h-10z" fill="#d2d2d2"/></g><g><path d="m36 42h10v2h-10z" fill="#d2d2d2"/></g><g><path d="m31 21.949v31.051l1 1 1-1v-31.051c-.329.033-.662.051-1 .051s-.671-.018-1-.051z" fill="#d2d2d2"/></g><g><path d="m24.019 18h-6.019v2h8.025c-.76-.569-1.435-1.242-2.006-2z" fill="#d2d2d2"/></g><g><path d="m39.981 18c-.571.758-1.246 1.431-2.006 2h8.025v-.019-1.981z" fill="#d2d2d2"/></g></g></g></svg>