<svg id="Capa_1" enable-background="new 0 0 510 510" height="512" viewBox="0 0 510 510" width="512" xmlns="http://www.w3.org/2000/svg" xmlns:xlink="http://www.w3.org/1999/xlink"><linearGradient id="lg1"><stop offset="0" stop-color="#b4d2e2"/><stop offset="1" stop-color="#7bacdf"/></linearGradient><linearGradient id="SVGID_1_" gradientUnits="userSpaceOnUse" x1="12.708" x2="154.897" xlink:href="#lg1" y1="19.644" y2="161.832"/><linearGradient id="SVGID_2_" gradientUnits="userSpaceOnUse" x1="126.703" x2="464.456" xlink:href="#lg1" y1="100.639" y2="438.392"/><linearGradient id="lg2"><stop offset="0" stop-color="#7bacdf" stop-opacity="0"/><stop offset="1" stop-color="#017297"/></linearGradient><linearGradient id="SVGID_3_" gradientUnits="userSpaceOnUse" x1="523.357" x2="307.356" xlink:href="#lg2" y1="297.688" y2="252.688"/><linearGradient id="SVGID_4_" gradientUnits="userSpaceOnUse" x1="281.5" x2="281.5" xlink:href="#lg2" y1="436" y2="494"/><linearGradient id="lg3"><stop offset="0" stop-color="#e6eeff"/><stop offset="1" stop-color="#bac8fa"/></linearGradient><linearGradient id="SVGID_5_" gradientUnits="userSpaceOnUse" x1="138.504" x2="478.615" xlink:href="#lg3" y1="161.568" y2="501.68"/><linearGradient id="lg4"><stop offset="0" stop-color="#a7b7f1" stop-opacity="0"/><stop offset="1" stop-color="#a7b7f1"/></linearGradient><linearGradient id="SVGID_6_" gradientUnits="userSpaceOnUse" x1="333.912" x2="133.412" xlink:href="#lg4" y1="280.772" y2="57.272"/><linearGradient id="SVGID_7_" gradientUnits="userSpaceOnUse" x1="251.5" x2="251.5" xlink:href="#lg4" y1="476" y2="505.108"/><linearGradient id="SVGID_8_" gradientUnits="userSpaceOnUse" x1="337.678" x2="390.931" xlink:href="#lg3" y1="426.95" y2="480.202"/><linearGradient id="lg5"><stop offset="0" stop-color="#fd4755"/><stop offset="1" stop-color="#a72b2b"/></linearGradient><linearGradient id="SVGID_9_" gradientUnits="userSpaceOnUse" x1="144.002" x2="355.001" xlink:href="#lg5" y1="237.997" y2="237.997"/><linearGradient id="SVGID_10_" gradientUnits="userSpaceOnUse" x1="186.668" x2="397.667" xlink:href="#lg5" y1="322.663" y2="322.663"/><linearGradient id="SVGID_11_" gradientUnits="userSpaceOnUse" x1="166.827" x2="238.04" xlink:href="#lg5" y1="107.173" y2="178.386"/><linearGradient id="SVGID_12_" gradientUnits="userSpaceOnUse" x1="169.713" x2="216.724" xlink:href="#lg5" y1="100.787" y2="147.797"/><g><path d="m376.301 470.872h-295.602c-11.834 0-21.428-9.594-21.428-21.428v-428.016c0-11.834 9.594-21.428 21.428-21.428h295.602c11.834 0 21.428 9.594 21.428 21.428v428.016c-.001 11.834-9.594 21.428-21.428 21.428z" fill="url(#SVGID_1_)"/><path d="m429.301 490.872h-295.602c-11.834 0-21.428-9.594-21.428-21.428v-428.016c0-11.834 9.593-21.428 21.428-21.428h295.602c11.834 0 21.428 9.594 21.428 21.428v428.016c-.001 11.834-9.594 21.428-21.428 21.428z" fill="url(#SVGID_2_)"/><path d="m429.301 490.872c11.834 0 21.428-9.594 21.428-21.428v-387.632l-34.479-34.479v298.191c0 54.516-21.656 106.799-60.205 145.348z" fill="url(#SVGID_3_)"/><path d="m112.271 367v102.444c0 11.834 9.593 21.428 21.428 21.428h295.602c11.834 0 21.428-9.594 21.428-21.428v-102.444z" fill="url(#SVGID_4_)"/><g><path d="m336.495 510h-233.352c-11.527 0-20.872-9.345-20.872-20.872v-429.128c0-11.527 9.344-20.872 20.872-20.872h296.714c11.527 0 20.872 9.345 20.872 20.872v365.767c-.001 46.521-37.713 84.233-84.234 84.233z" fill="url(#SVGID_5_)"/><path d="m265.536 94.922c-.061-.071-.115-.146-.177-.217-14.977-17.346-41.826-25.657-73.661-22.79-4.126.371-7.169 4.016-6.798 8.141.308 3.424 9.094 12.137 12.09 12.693.043.233.099.461.163.686h-9.052c-4.349 0-8.698 2.047-8.698 6.14v2.659c-12.112 2.097-23.397 6.239-32.423 11.97-14.033 8.91-22.309 21.348-23.934 35.969-1.491 13.415 2.721 26.279 11.858 36.222l277.037 276.83c5.614-11.285 8.787-23.998 8.787-37.457v-175.683z" fill="url(#SVGID_6_)"/><path d="m82.271 357.045v132.083c0 11.527 9.344 20.872 20.872 20.872h233.352c46.521 0 84.233-37.712 84.233-84.233v-68.721h-338.457z" fill="url(#SVGID_7_)"/><path d="m336.495 510v-63.362c0-11.527 9.345-20.872 20.872-20.872h63.362c-.001 46.522-37.713 84.234-84.234 84.234z" fill="url(#SVGID_8_)"/></g><g fill="#7bacdf"><g><path d="m201.316 273.433h84.822c4.142 0 7.5-3.358 7.5-7.5s-3.358-7.5-7.5-7.5h-84.822c-4.142 0-7.5 3.358-7.5 7.5s3.358 7.5 7.5 7.5z"/><path d="m201.316 306.1h58.322c4.142 0 7.5-3.358 7.5-7.5s-3.358-7.5-7.5-7.5h-58.322c-4.142 0-7.5 3.358-7.5 7.5s3.358 7.5 7.5 7.5z"/><path d="m376.816 258.433h-60.5c-4.142 0-7.5 3.358-7.5 7.5s3.358 7.5 7.5 7.5h60.5c4.142 0 7.5-3.358 7.5-7.5s-3.358-7.5-7.5-7.5z"/><path d="m350.316 306.1c4.142 0 7.5-3.358 7.5-7.5s-3.358-7.5-7.5-7.5h-34c-4.142 0-7.5 3.358-7.5 7.5s3.358 7.5 7.5 7.5z"/><path d="m281.816 291.1c-4.142 0-7.5 3.358-7.5 7.5s3.358 7.5 7.5 7.5h8.5c4.142 0 7.5-3.358 7.5-7.5s-3.358-7.5-7.5-7.5z"/><path d="m376.816 328.433h-84.822c-4.142 0-7.5 3.358-7.5 7.5s3.358 7.5 7.5 7.5h84.822c4.142 0 7.5-3.358 7.5-7.5s-3.358-7.5-7.5-7.5z"/><path d="m350.316 361.1h-58.322c-4.142 0-7.5 3.358-7.5 7.5s3.358 7.5 7.5 7.5h58.322c4.142 0 7.5-3.358 7.5-7.5s-3.358-7.5-7.5-7.5z"/><path d="m201.316 343.433h60.5c4.142 0 7.5-3.358 7.5-7.5s-3.358-7.5-7.5-7.5h-60.5c-4.142 0-7.5 3.358-7.5 7.5s3.358 7.5 7.5 7.5z"/><path d="m201.316 376.1h34c4.142 0 7.5-3.358 7.5-7.5s-3.358-7.5-7.5-7.5h-34c-4.142 0-7.5 3.358-7.5 7.5s3.358 7.5 7.5 7.5z"/><path d="m261.316 361.1c-4.142 0-7.5 3.358-7.5 7.5s3.358 7.5 7.5 7.5h8.5c4.142 0 7.5-3.358 7.5-7.5s-3.358-7.5-7.5-7.5z"/><path d="m259.638 396.433h-58.322c-4.142 0-7.5 3.358-7.5 7.5s3.358 7.5 7.5 7.5h58.322c4.142 0 7.5-3.358 7.5-7.5s-3.358-7.5-7.5-7.5z"/><path d="m350.316 396.433h-34c-4.142 0-7.5 3.358-7.5 7.5s3.358 7.5 7.5 7.5h34c4.142 0 7.5-3.358 7.5-7.5s-3.358-7.5-7.5-7.5z"/><path d="m290.316 396.433h-8.5c-4.142 0-7.5 3.358-7.5 7.5s3.358 7.5 7.5 7.5h8.5c4.142 0 7.5-3.358 7.5-7.5s-3.358-7.5-7.5-7.5z"/><path d="m201.316 235.933h42.744c4.142 0 7.5-3.358 7.5-7.5s-3.358-7.5-7.5-7.5h-42.744c-4.142 0-7.5 3.358-7.5 7.5s3.358 7.5 7.5 7.5z"/><path d="m276.573 235.933h100.244c4.142 0 7.5-3.358 7.5-7.5s-3.358-7.5-7.5-7.5h-100.244c-4.142 0-7.5 3.358-7.5 7.5s3.358 7.5 7.5 7.5z"/></g><g><path d="m160.729 278.07h-26.825c-8.393 0-15.22-6.828-15.22-15.22v-26.825c0-8.393 6.828-15.22 15.22-15.22h26.825c8.393 0 15.22 6.828 15.22 15.22v26.825c0 8.392-6.827 15.22-15.22 15.22zm-26.825-42.266c-.122 0-.22.099-.22.22v26.825c0 .122.099.22.22.22h26.825c.122 0 .22-.099.22-.22v-26.825c0-.122-.099-.22-.22-.22z"/><path d="m160.729 344.816h-26.825c-8.393 0-15.22-6.828-15.22-15.22v-26.825c0-8.392 6.828-15.22 15.22-15.22h26.825c8.393 0 15.22 6.828 15.22 15.22v26.825c0 8.392-6.827 15.22-15.22 15.22zm-26.825-42.266c-.122 0-.22.099-.22.22v26.825c0 .122.099.22.22.22h26.825c.122 0 .22-.099.22-.22v-26.825c0-.122-.099-.22-.22-.22z"/><path d="m160.729 411.562h-26.825c-8.393 0-15.22-6.828-15.22-15.22v-26.825c0-8.393 6.828-15.22 15.22-15.22h26.825c8.393 0 15.22 6.828 15.22 15.22v26.825c0 8.392-6.827 15.22-15.22 15.22zm-26.825-42.265c-.122 0-.22.099-.22.22v26.825c0 .122.099.22.22.22h26.825c.122 0 .22-.099.22-.22v-26.825c0-.122-.099-.22-.22-.22z"/></g></g><path d="m151.501 287.495c-1.903 0-3.807-.719-5.267-2.161-2.945-2.907-2.982-7.647-.079-10.596.683-.693 17.102-17.201 50.115-36.12 30.22-17.318 80.802-40.058 150.161-50.041 4.096-.591 7.901 2.255 8.492 6.355s-2.255 7.902-6.355 8.492c-66.688 9.599-115.255 31.333-144.255 47.875-31.444 17.936-47.32 33.813-47.477 33.971-1.466 1.481-3.4 2.225-5.335 2.225z" fill="url(#SVGID_9_)"/><path d="m194.168 372.161c-1.903 0-3.807-.719-5.267-2.161-2.945-2.907-2.982-7.647-.079-10.596.683-.693 17.102-17.201 50.115-36.12 30.22-17.318 80.802-40.058 150.161-50.041 4.094-.591 7.901 2.255 8.492 6.355s-2.255 7.902-6.355 8.492c-66.688 9.599-115.255 31.333-144.255 47.875-31.444 17.936-47.32 33.813-47.477 33.971-1.467 1.482-3.401 2.225-5.335 2.225z" fill="url(#SVGID_10_)"/><g><path d="m179.085 203.102c-18.667.001-34.646-6.246-45.181-17.708-9.138-9.942-13.349-22.806-11.858-36.222 1.625-14.621 9.9-27.059 23.934-35.969 11.136-7.07 25.707-11.723 41.03-13.1 4.122-.367 7.771 2.672 8.141 6.798.371 4.126-2.673 7.771-6.798 8.141-12.985 1.167-25.178 5.011-34.333 10.824-10.203 6.478-15.945 14.877-17.065 24.962-1.004 9.042 1.835 17.713 7.994 24.416 7.975 8.677 20.762 13.238 35.976 12.833 39.146-1.031 73.004-29.109 78.908-53.663 2.83-11.77.47-22.458-6.826-30.906-11.607-13.442-34.397-20.039-60.965-17.654-4.124.377-7.77-2.673-8.141-6.798s2.673-7.771 6.798-8.141c31.835-2.866 58.684 5.445 73.661 22.79 10.435 12.085 14.006 27.788 10.056 44.216-8.224 34.203-50.856 64.038-93.096 65.151-.749.02-1.494.03-2.235.03z" fill="url(#SVGID_11_)"/><path d="m231.488 92.434h-44.387c-4.349 0-8.698 2.047-8.698 6.14v81.227c0 4.093 4.989 6.14 9.978 6.14s9.977-2.047 9.977-6.14v-33.002h19.315c4.221 0 6.012-4.093 6.012-7.547 0-4.093-2.174-7.803-6.012-7.803h-19.315v-21.618h33.13c3.837 0 6.012-4.093 6.012-8.826 0-4.094-1.791-8.571-6.012-8.571z" fill="url(#SVGID_12_)"/></g></g></svg>