<svg id="Layer_1" enable-background="new 0 0 256 256" height="512" viewBox="0 0 256 256" width="512" xmlns="http://www.w3.org/2000/svg"><g><g><path d="m195.205 248h-171.637c-4.82 0-8.727-3.907-8.727-8.727v-222.546c0-4.82 3.907-8.727 8.727-8.727h171.636c4.82 0 8.727 3.907 8.727 8.727v222.545c.001 4.821-3.907 8.728-8.726 8.728z" fill="#e0ebfc"/></g><g><path d="m195.205 250h-171.637c-5.915 0-10.728-4.813-10.728-10.728v-222.544c.001-5.915 4.813-10.728 10.728-10.728h171.636c5.915 0 10.727 4.813 10.727 10.728v222.545c.001 5.915-4.811 10.727-10.726 10.727zm-171.637-240c-3.709 0-6.728 3.018-6.728 6.728v222.545c0 3.71 3.018 6.728 6.728 6.728h171.636c3.709 0 6.727-3.018 6.727-6.728v-222.545c0-3.71-3.018-6.728-6.727-6.728z" fill="#3762cc"/></g><g><path d="m178.687 42.793h-138.601c-3.199 0-5.793-2.593-5.793-5.793 0-3.199 2.593-5.793 5.793-5.793h138.602c3.199 0 5.793 2.593 5.793 5.793-.001 3.199-2.595 5.793-5.794 5.793z" fill="#a4c9ff"/></g><g><path d="m55.293 72h-12c-1.657 0-3-1.343-3-3v-12c0-1.657 1.343-3 3-3h12c1.657 0 3 1.343 3 3v12c0 1.657-1.343 3-3 3z" fill="#a4c9ff"/></g><g><path d="m178.687 94.793h-138.601c-3.199 0-5.793-2.593-5.793-5.793 0-3.199 2.593-5.793 5.793-5.793h138.602c3.199 0 5.793 2.593 5.793 5.793-.001 3.199-2.595 5.793-5.794 5.793z" fill="#a4c9ff"/></g><g><path d="m178.687 120.793h-138.601c-3.199 0-5.793-2.593-5.793-5.793 0-3.199 2.593-5.793 5.793-5.793h138.602c3.199 0 5.793 2.593 5.793 5.793-.001 3.199-2.595 5.793-5.794 5.793z" fill="#a4c9ff"/></g><g><path d="m178.687 172.793h-138.601c-3.199 0-5.793-2.593-5.793-5.793 0-3.199 2.593-5.793 5.793-5.793h138.602c3.199 0 5.793 2.593 5.793 5.793-.001 3.199-2.595 5.793-5.794 5.793z" fill="#a4c9ff"/></g><g><path d="m178.687 198.793h-138.601c-3.199 0-5.793-2.593-5.793-5.793 0-3.199 2.593-5.793 5.793-5.793h138.602c3.199 0 5.793 2.593 5.793 5.793-.001 3.199-2.595 5.793-5.794 5.793z" fill="#a4c9ff"/></g><g><path d="m115.293 72h-12c-1.657 0-3-1.343-3-3v-12c0-1.657 1.343-3 3-3h12c1.657 0 3 1.343 3 3v12c0 1.657-1.343 3-3 3z" fill="#a4c9ff"/></g><g><path d="m175.293 72h-12c-1.657 0-3-1.343-3-3v-12c0-1.657 1.343-3 3-3h12c1.657 0 3 1.343 3 3v12c0 1.657-1.343 3-3 3z" fill="#a4c9ff"/></g><g><path d="m55.293 150h-12c-1.657 0-3-1.343-3-3v-12c0-1.657 1.343-3 3-3h12c1.657 0 3 1.343 3 3v12c0 1.657-1.343 3-3 3z" fill="#a4c9ff"/></g><g><path d="m115.293 150h-12c-1.657 0-3-1.343-3-3v-12c0-1.657 1.343-3 3-3h12c1.657 0 3 1.343 3 3v12c0 1.657-1.343 3-3 3z" fill="#a4c9ff"/></g><g><path d="m175.293 150h-12c-1.657 0-3-1.343-3-3v-12c0-1.657 1.343-3 3-3h12c1.657 0 3 1.343 3 3v12c0 1.657-1.343 3-3 3z" fill="#a4c9ff"/></g><g><path d="m55.293 228h-12c-1.657 0-3-1.343-3-3v-12c0-1.657 1.343-3 3-3h12c1.657 0 3 1.343 3 3v12c0 1.657-1.343 3-3 3z" fill="#a4c9ff"/></g><g><path d="m115.293 228h-12c-1.657 0-3-1.343-3-3v-12c0-1.657 1.343-3 3-3h12c1.657 0 3 1.343 3 3v12c0 1.657-1.343 3-3 3z" fill="#a4c9ff"/></g><g><path d="m108.309 69.563c-.005 0-.009 0-.013 0-1.324-.004-2.571-.651-3.336-1.73l-5.629-7.928c-.875-1.233-.586-2.942.648-3.818s2.943-.584 3.818.648l4.52 6.366 11.822-16.435c.883-1.228 2.594-1.507 3.822-.624 1.227.883 1.507 2.594.624 3.822l-12.941 17.991c-.77 1.07-2.017 1.708-3.335 1.708z" fill="#f9cfcf"/></g><g><path d="m108.309 147.563c-.005 0-.009 0-.013 0-1.324-.004-2.571-.651-3.336-1.73l-5.629-7.928c-.875-1.233-.586-2.942.648-3.818s2.943-.584 3.818.648l4.52 6.366 11.822-16.435c.883-1.228 2.594-1.507 3.822-.624 1.227.883 1.507 2.594.624 3.822l-12.941 17.991c-.77 1.07-2.017 1.708-3.335 1.708z" fill="#f9cfcf"/></g><g><path d="m193.134 38.413-70.735 70.735-4.09 22.28c-.14.763.666 1.569 1.429 1.429l22.28-4.09 70.735-70.735z" fill="#f9cfcf"/></g><g><path d="m193.134 38.413-70.703 70.703c1.576 2.112 6.102.457 7.865 2.22.928.928.725 1.659 1.237 6.285.383 3.458 6.385 1.338 8.298 3.25 1.763 1.763.108 6.289 2.22 7.865l70.703-70.703c-12.15-12.15-7.252-7.252-19.62-19.62z" fill="#6bdddd"/></g><g><path d="m192.809 39.196h27.746v10.575h-27.746z" fill="#e0ebfc" transform="matrix(-.707 -.707 .707 -.707 321.375 222.084)"/></g><g><path d="m219.838 20.088 11.24 11.24c2.314 2.314 2.314 6.066 0 8.38l-10.846 10.847-19.62-19.62 10.847-10.847c2.313-2.314 6.065-2.314 8.379 0z" fill="#f9a7a7"/></g><g><path d="m212.753 60.032c-.512 0-1.023-.195-1.414-.586l-19.62-19.62c-.375-.375-.586-.884-.586-1.414s.211-1.039.586-1.414l7.478-7.478c.78-.781 2.047-.781 2.828 0l19.62 19.62c.375.375.586.884.586 1.414s-.211 1.039-.586 1.414l-7.478 7.478c-.39.391-.902.586-1.414.586zm-16.791-21.62 16.791 16.792 4.649-4.649-16.791-16.792z" fill="#3762cc"/></g><g><path d="m220.231 52.555c-.53 0-1.039-.211-1.414-.586l-19.62-19.62c-.781-.781-.781-2.047 0-2.828l10.846-10.847c3.09-3.091 8.119-3.089 11.208 0l11.24 11.24c1.497 1.496 2.321 3.486 2.321 5.604s-.824 4.107-2.321 5.604l-10.847 10.847c-.373.375-.882.586-1.413.586zm-16.791-21.62 16.791 16.792 9.432-9.433c.741-.741 1.149-1.728 1.149-2.776s-.408-2.034-1.149-2.775l-11.24-11.24c-1.53-1.529-4.021-1.529-5.552 0z" fill="#3762cc"/></g><g><path d="m120.678 118.521-2.369 12.907c-.14.763.666 1.569 1.429 1.429l12.907-2.369z" fill="#4671c6"/></g><g><path d="m119.562 134.872c-.833 0-1.66-.346-2.291-.976-.767-.767-1.114-1.824-.93-2.83l4.089-22.28c.073-.398.266-.766.553-1.053l70.735-70.735c.75-.75 2.078-.75 2.828 0l19.62 19.62c.781.781.781 2.047 0 2.828l-70.735 70.734c-.287.287-.654.479-1.053.553l-22.281 4.09c-.176.033-.356.049-.535.049zm4.691-24.751-3.774 20.566 20.566-3.775 68.88-68.88-16.791-16.792z" fill="#3762cc"/></g><g><circle cx="191.159" cy="186.051" fill="#f9a7a7" r="50"/></g><g><path d="m191.159 223.139c-20.45 0-37.089-16.638-37.089-37.088s16.638-37.088 37.089-37.088 37.087 16.637 37.087 37.088-16.636 37.088-37.087 37.088z" fill="#4671c6"/></g><g><path d="m191.159 238.051c-28.673 0-52-23.327-52-52s23.327-52 52-52 52 23.327 52 52-23.327 52-52 52zm0-100c-26.467 0-48 21.532-48 48s21.533 48 48 48 48-21.532 48-48-21.533-48-48-48z" fill="#3762cc"/></g><g><path d="m182.254 214.841c-.01 0-.019 0-.028 0-2.903-.009-5.639-1.427-7.317-3.794l-12.345-17.388c-1.919-2.705-1.284-6.453 1.421-8.373 2.706-1.922 6.454-1.282 8.373 1.42l9.913 13.962 25.927-36.046c1.937-2.693 5.69-3.304 8.382-1.369 2.692 1.937 3.305 5.689 1.368 8.382l-28.381 39.458c-1.689 2.348-4.422 3.748-7.313 3.748z" fill="#6bdddd"/></g></g></svg>