<svg id="Capa_1" enable-background="new 0 0 512 512" height="512" viewBox="0 0 512 512" width="512" xmlns="http://www.w3.org/2000/svg"><g><path d="m512 256c0 57.5-18.96 110.57-50.97 153.31-5.45 7.276-19.265 2.95-25.443 9.6-7.458 8.029-7.438 26.882-15.867 33.9-44.38 36.95-101.45 59.19-163.72 59.19-10.84 0-21.53-.67-32.02-1.99-6.61-.82-13.13-28.22-19.57-29.53l-6.324 9.173c-47.31-9.69-66.159-22.523-100.039-54.373-7.86-7.39-15.26-15.28-22.13-23.61-9.61-11.63-18.21-24.13-25.66-37.35-6.74-11.95-29.947-17.26-34.717-30.31-10.05-27.44-15.54-57.08-15.54-88.01 0-141.38 114.62-256 256-256s256 114.62 256 256z" fill="#454045"/><path d="m250.184 82.306 225.586 192.634-143.784 33.946-167.659-13.731-31.469-84.109 31.469-101.994" fill="#544f57"/><g><path d="m223.98 319.17v190.84c-6.61-.82-13.13-1.9-19.57-3.21h-.01c-47.31-9.69-89.87-32.43-123.75-64.28-7.86-7.39-15.26-15.28-22.13-23.61-9.61-11.63-18.21-24.13-25.66-37.35-6.74-11.95-12.55-24.5-17.32-37.55v-24.84z" fill="#8b5e5e"/><path d="m461.03 319.17v90.14c-12.03 16.06-25.9 30.67-41.31 43.5v-133.64z" fill="#8b5e5e"/><g fill="#aa8080"><path d="m207.86 364.38v39.06c0 8.54-6.93 15.47-15.47 15.47h-133.87c-9.61-11.63-18.21-24.13-25.66-37.35v-17.18c0-8.54 6.93-15.47 15.47-15.47h144.06c8.54 0 15.47 6.93 15.47 15.47z"/><path d="m207.86 457.99v39.06c0 3.69-1.3 7.09-3.45 9.75h-.01c-25.42-5.21-49.47-14.18-71.54-26.32-7.36-4.04-14.5-8.44-21.39-13.17-10.91-7.47-21.22-15.76-30.82-24.79h111.74c8.54 0 15.47 6.93 15.47 15.47z"/></g></g><g><path d="m115.444 105.553c-.005 0-.015.005-.036.015-.657.318-10.679 5.252-22.025 15.217-15.202 13.348-25.588 29.043-30.861 46.648-9.734 32.498-1.545 70.577 24.341 113.195l-2.033 1.237c-3.501-1.807-6.916-3.773-10.227-5.878-5.201-3.312-10.155-6.977-14.822-10.966-2.418-2.054-4.754-4.205-7.013-6.428-3.732-3.681-7.244-7.583-10.514-11.685 0 0-.005 0-.005-.005-10.894-31.22-12.322-60.417-4.205-87.201 16.188-53.404 64.468-76.441 66.516-77.395l5.422 11.629.169.359z" fill="#ffbb16"/><path d="m48.286 159.702c-9.667 31.903-5.796 67.225 11.495 105.319-2.418-2.054-4.754-4.205-7.013-6.428-3.732-3.681-7.244-7.583-10.514-11.685-10.9-31.225-12.327-60.417-4.21-87.207 16.188-53.404 64.468-76.441 66.516-77.395l2.09 4.477c-14.905 9.051-45.997 32.124-58.364 72.919z" fill="#ff931f"/><circle cx="188.314" cy="133.482" fill="#ffbb16" r="39.404"/><path d="m222.294 153.436c-6.85 11.64-19.51 19.45-33.98 19.45-21.76 0-39.4-17.65-39.4-39.41 0-14.47 7.81-27.13 19.44-33.98-3.44 5.85-5.41 12.66-5.41 19.94 0 21.77 17.65 39.41 39.41 39.41 7.28 0 14.09-1.97 19.94-5.41z" fill="#ff931f"/><g><path d="m171.438 56.141-60.466 60.466-8.136-8.136-9.372-9.366-14.242-14.235-.147-.153c-8.35-8.351-12.523-19.289-12.523-30.227 0-10.95 4.172-21.889 12.523-30.239 16.707-16.707 43.778-16.707 60.472 0l23.755 23.755z" fill="#d82e3d"/><g fill="#c32430"><path d="m108.937 83.631-14.239-14.239-.15-.15c-8.349-8.349-12.523-19.289-12.523-30.228 0-7.441 1.934-14.876 5.79-21.498-3.122 1.819-6.066 4.061-8.742 6.736-8.349 8.348-12.523 19.288-12.523 30.236 0 10.94 4.174 21.88 12.523 30.229l.15.15 14.239 14.239 17.511 17.502 15.475-15.475z"/><path d="m171.438 56.141-21.343 36.751-39.123 23.716-8.137-8.137 60.467-60.466z"/></g></g><path d="m251.918 68.973-57.068 67.452-71.054 60.66c-16.874-23.702-21.146-53.621-12.824-80.48l60.466-60.466c26.86-8.32 56.779-4.049 80.48 12.834z" fill="#d82e3d"/><g fill="#c32430"><path d="m146.069 174.814c-16.874-23.702-21.146-53.621-12.824-80.48l-22.273 22.272c-8.322 26.859-4.051 56.778 12.824 80.48z"/><path d="m265.279 65.445c3.851 3.214 4.138 9.031.591 12.578l-40.151 40.151-52.712 52.722-40.149 40.149c-3.547 3.547-9.364 3.26-12.578-.592-.04-.048-.079-.095-.119-.143-2.806-3.375-2.558-8.339.545-11.442l132.998-132.989c3.104-3.103 8.069-3.351 11.443-.544.044.037.088.073.132.11z"/></g></g><path d="m143.011 244.362h-99.368c-11.773 0-21.316 9.544-21.316 21.316v29.476h142v-29.476c0-11.772-9.543-21.316-21.316-21.316z" fill="#d82e3d"/><path d="m86.213 244.362c-11.774 0-21.313 9.54-21.313 21.313v29.485h-42.58v-29.485c0-11.773 9.551-21.313 21.324-21.313z" fill="#c32430"/><g><path d="m360.075 224.478h116.002c12.825 0 23.223 10.397 23.223 23.223 0 12.825-10.397 23.222-23.223 23.222h-116.002" fill="#f1f4f6"/><path d="m360.075 276.384h116.002c15.816 0 28.684-12.868 28.684-28.684s-12.868-28.684-28.684-28.684h-116.002c-3.016 0-5.461 2.445-5.461 5.461s2.445 5.462 5.461 5.462h116.002c9.794 0 17.761 7.968 17.761 17.761 0 9.794-7.968 17.761-17.761 17.761h-116.002c-3.016 0-5.461 2.445-5.461 5.461s2.445 5.462 5.461 5.462z" fill="#7dbe3b"/><g fill="#d0e2e7"><path d="m474.511 250.59h-114.436v6.82h114.436c1.883 0 3.41-1.527 3.41-3.41 0-1.883-1.526-3.41-3.41-3.41z"/><path d="m474.511 237.99h-114.436v6.82h114.436c1.883 0 3.41-1.527 3.41-3.41 0-1.883-1.526-3.41-3.41-3.41z"/></g></g><g><path d="m360.075 112.968h116.002c12.825 0 23.223 10.397 23.223 23.222 0 12.825-10.397 23.222-23.223 23.222h-116.002" fill="#f1f4f6"/><path d="m360.075 164.875h116.002c15.816 0 28.684-12.868 28.684-28.684s-12.868-28.684-28.684-28.684h-116.002c-3.016 0-5.461 2.445-5.461 5.462 0 3.016 2.445 5.461 5.461 5.461h116.002c9.794 0 17.761 7.968 17.761 17.761 0 9.794-7.968 17.761-17.761 17.761h-116.002c-3.016 0-5.461 2.445-5.461 5.462s2.445 5.461 5.461 5.461z" fill="#61a2f9"/><g fill="#d0e2e7"><path d="m474.511 139.08h-114.436v6.82h114.436c1.883 0 3.41-1.527 3.41-3.41 0-1.883-1.526-3.41-3.41-3.41z"/><path d="m474.511 126.481h-114.436v6.82h114.436c1.883 0 3.41-1.527 3.41-3.41 0-1.884-1.526-3.41-3.41-3.41z"/></g></g><g><path d="m499.3 168.721h-116.002c-12.825 0-23.223 10.397-23.223 23.222 0 12.825 10.397 23.223 23.223 23.223h116.002" fill="#f1f4f6"/><path d="m499.299 220.627h-116.001c-15.816 0-28.684-12.868-28.684-28.684s12.868-28.684 28.684-28.684h116.002c3.016 0 5.461 2.445 5.461 5.462s-2.445 5.462-5.461 5.462h-116.002c-9.794 0-17.761 7.968-17.761 17.761 0 9.794 7.968 17.761 17.761 17.761h116.002c3.016 0 5.461 2.445 5.461 5.462s-2.445 5.46-5.462 5.46z" fill="#d82e3d"/><g fill="#d0e2e7"><path d="m384.863 194.833h114.437v6.82h-114.437c-1.883 0-3.41-1.527-3.41-3.41 0-1.883 1.527-3.41 3.41-3.41z"/><path d="m384.863 182.233h114.437v6.82h-114.437c-1.883 0-3.41-1.527-3.41-3.41 0-1.883 1.527-3.41 3.41-3.41z"/></g></g><path d="m507.15 291.32v14.5c-1.24 6.3-2.71 12.52-4.41 18.64-2.98 3.21-7.24 5.21-11.97 5.21h-469.54c-4.73 0-8.99-2-11.97-5.21-1.7-6.12-3.17-12.34-4.41-18.64v-14.5c0-9.05 7.33-16.38 16.38-16.38h469.54c9.05 0 16.38 7.33 16.38 16.38z" fill="#aa8080"/><path d="m107.23 329.67h-86c-4.73 0-8.99-2-11.97-5.21-1.7-6.12-3.17-12.34-4.41-18.64v-14.5c0-9.05 7.33-16.38 16.38-16.38h86c-9.04 0-16.37 7.33-16.37 16.38v21.97c0 9.05 7.33 16.38 16.37 16.38z" fill="#8b5e5e"/><g fill="#f1f4f6"><circle cx="118.207" cy="385.413" r="14.651"/><path d="m132.86 480.32v.16c-7.36-4.04-14.5-8.44-21.39-13.17 2.02-1.05 4.31-1.64 6.74-1.64 8.09 0 14.65 6.56 14.65 14.65z"/></g></g></svg>